<mxfile host="app.diagrams.net" modified="2023-11-08T23:41:05.318Z" agent="Mozilla/5.0 (Windows NT 10.0; Win64; x64; rv:109.0) Gecko/20100101 Firefox/119.0" etag="pgbLTZTDhO1Y0X6nxB17" version="22.0.8" type="github">
  <diagram name="Page-1" id="RRSpOChAPI_KbZhBSmLg">
    <mxGraphModel dx="2284" dy="1806" grid="1" gridSize="10" guides="1" tooltips="1" connect="1" arrows="1" fold="1" page="1" pageScale="1" pageWidth="850" pageHeight="1100" math="0" shadow="0">
      <root>
        <mxCell id="0" />
        <mxCell id="1" parent="0" />
        <mxCell id="EIAWiYakASDLayadyy67-1" value="&lt;div align=&quot;left&quot;&gt;Functional Reqs:&lt;/div&gt;&lt;div align=&quot;left&quot;&gt;&lt;br&gt;&lt;/div&gt;&lt;div align=&quot;left&quot;&gt;User - Customer:&lt;/div&gt;&lt;div align=&quot;left&quot;&gt;&lt;br&gt;&lt;/div&gt;&lt;div align=&quot;left&quot;&gt;- /GetHotels&lt;br&gt;&lt;/div&gt;&lt;div align=&quot;left&quot;&gt;&amp;nbsp;Input dates &amp;amp; location - see hotels with rooms available in the area&lt;/div&gt;&lt;div align=&quot;left&quot;&gt;- should show $ from - to for availbele rooms&lt;/div&gt;&lt;div align=&quot;left&quot;&gt;- basic hotel info:&lt;/div&gt;&lt;div align=&quot;left&quot;&gt;&amp;nbsp; - address&lt;/div&gt;&lt;div align=&quot;left&quot;&gt;&amp;nbsp; - thumbnail&lt;/div&gt;&lt;div align=&quot;left&quot;&gt;&amp;nbsp; -&amp;nbsp; hotel name&lt;/div&gt;&lt;div align=&quot;left&quot;&gt;&amp;nbsp; - hotel rating?&lt;/div&gt;&lt;div align=&quot;left&quot;&gt;&amp;nbsp; - etc&lt;/div&gt;&lt;div align=&quot;left&quot;&gt;&lt;br&gt;&lt;/div&gt;&lt;div align=&quot;left&quot;&gt;- /GetRooms&lt;/div&gt;&lt;div align=&quot;left&quot;&gt;- User clicks on hotel they want , see list of available room TYPEs to choose from&lt;/div&gt;&lt;div align=&quot;left&quot;&gt;- for each room need overview data:&lt;/div&gt;&lt;div align=&quot;left&quot;&gt;&lt;span style=&quot;&quot;&gt;&lt;span style=&quot;&quot;&gt;&amp;nbsp;&amp;nbsp;&amp;nbsp;&amp;nbsp;&lt;/span&gt;&lt;/span&gt;- thumbnail&lt;/div&gt;&lt;div align=&quot;left&quot;&gt;&amp;nbsp;&amp;nbsp;&amp;nbsp;&amp;nbsp;&amp;nbsp;&amp;nbsp;&amp;nbsp; - # beds&lt;/div&gt;&lt;div align=&quot;left&quot;&gt;&amp;nbsp;&amp;nbsp;&amp;nbsp;&amp;nbsp;&amp;nbsp;&amp;nbsp;&amp;nbsp; - room type&lt;/div&gt;&lt;div align=&quot;left&quot;&gt;&lt;span style=&quot;&quot;&gt;&lt;span style=&quot;&quot;&gt;&amp;nbsp;&amp;nbsp;&amp;nbsp;&amp;nbsp;&lt;/span&gt;&lt;/span&gt;- room features - microwave, etc&lt;/div&gt;&lt;div align=&quot;left&quot;&gt;&lt;span style=&quot;&quot;&gt;&lt;span style=&quot;&quot;&gt;&amp;nbsp;&amp;nbsp;&amp;nbsp;&amp;nbsp;&lt;/span&gt;&lt;/span&gt;- available floors&lt;/div&gt;&lt;div align=&quot;left&quot;&gt;&lt;br&gt;&lt;/div&gt;&lt;div align=&quot;left&quot;&gt;&lt;br&gt;&lt;/div&gt;&lt;div align=&quot;left&quot;&gt;- /GetRoomDetails&lt;/div&gt;&lt;div align=&quot;left&quot;&gt;- User clicks on room type they want in previous view - sees more detailed view of room they clicked&lt;/div&gt;&lt;div align=&quot;left&quot;&gt;- sees same info from before + &lt;br&gt;&lt;div align=&quot;left&quot;&gt;&lt;span style=&quot;&quot;&gt;&amp;nbsp;&amp;nbsp;&amp;nbsp;&amp;nbsp;&lt;/span&gt;- short text description&lt;/div&gt;&lt;div align=&quot;left&quot;&gt;&lt;span style=&quot;&quot;&gt;&lt;span style=&quot;&quot;&gt;&amp;nbsp;&amp;nbsp;&amp;nbsp;&amp;nbsp;&lt;/span&gt;&lt;/span&gt;- Multiple high-res pics&lt;/div&gt;&lt;div align=&quot;left&quot;&gt;&lt;span style=&quot;&quot;&gt;&lt;span style=&quot;&quot;&gt;&amp;nbsp;&amp;nbsp;&amp;nbsp;&amp;nbsp;&lt;/span&gt;&lt;/span&gt;- short text description&lt;/div&gt;&lt;div align=&quot;left&quot;&gt;(also has a button called BOOK that lets you select your floor which kicks-off /BookRoomType&lt;/div&gt;&lt;div align=&quot;left&quot;&gt;&lt;br&gt;&lt;/div&gt;&lt;div align=&quot;left&quot;&gt;&lt;br&gt;&lt;/div&gt;&lt;div align=&quot;left&quot;&gt;- /BookRoomType&lt;/div&gt;&lt;div align=&quot;left&quot;&gt;&lt;span style=&quot;&quot;&gt;&lt;span style=&quot;white-space: pre;&quot;&gt;&amp;nbsp;&amp;nbsp;&amp;nbsp;&amp;nbsp;&lt;/span&gt;&lt;/span&gt;- &lt;span style=&quot;white-space: pre;&quot;&gt;&amp;nbsp;&amp;nbsp;&amp;nbsp;&lt;/span&gt; Would be nice if this didnt complete until OFFICIALLY booked - longer load time is ok&lt;/div&gt;&lt;div align=&quot;left&quot;&gt;&lt;span style=&quot;white-space: pre;&quot;&gt;&#x9;&lt;/span&gt;- user info - name, email, etc&lt;/div&gt;&lt;div align=&quot;left&quot;&gt;&amp;nbsp;&amp;nbsp;&amp;nbsp;&amp;nbsp;&amp;nbsp;&amp;nbsp;&amp;nbsp; - special request txt - allergies&lt;/div&gt;&lt;div align=&quot;left&quot;&gt;&lt;span style=&quot;white-space: pre;&quot;&gt;&#x9;&lt;/span&gt;- floor #&lt;/div&gt;&lt;div align=&quot;left&quot;&gt;&lt;span style=&quot;white-space: pre;&quot;&gt;&#x9;&lt;/span&gt;- assume free - no payment&lt;/div&gt;&lt;div align=&quot;left&quot;&gt;&lt;br&gt;&lt;/div&gt;&lt;div align=&quot;left&quot;&gt;ASSUME NO OVERBOOKING&lt;br&gt;&lt;/div&gt;&lt;/div&gt;&lt;div align=&quot;left&quot;&gt;&lt;br&gt;&lt;/div&gt;" style="text;html=1;align=left;verticalAlign=middle;resizable=0;points=[];autosize=1;strokeColor=none;fillColor=none;" vertex="1" parent="1">
          <mxGeometry x="-220" y="-257" width="560" height="620" as="geometry" />
        </mxCell>
      </root>
    </mxGraphModel>
  </diagram>
</mxfile>
